<svg width="17" height="13" viewBox="0 0 17 13" fill="none" xmlns="http://www.w3.org/2000/svg">
<path d="M15.4875 0.642761H1.11152C0.839185 0.642761 0.578001 0.750947 0.385429 0.943519C0.192857 1.13609 0.084671 1.39728 0.084671 1.66961V11.9381C0.084671 12.2105 0.192857 12.4717 0.385429 12.6642C0.578001 12.8568 0.839185 12.965 1.11152 12.965H15.4875C15.7598 12.965 16.021 12.8568 16.2136 12.6642C16.4061 12.4717 16.5143 12.2105 16.5143 11.9381V1.66961C16.5143 1.39728 16.4061 1.13609 16.2136 0.943519C16.021 0.750947 15.7598 0.642761 15.4875 0.642761ZM14.6968 11.9381H1.96381L5.55779 8.22093L4.81846 7.50727L1.11152 11.3426V2.45002L7.49341 8.8011C7.6858 8.99236 7.94606 9.0997 8.21734 9.0997C8.48862 9.0997 8.74888 8.99236 8.94127 8.8011L15.4875 2.29086V11.2758L11.7086 7.497L10.9847 8.22093L14.6968 11.9381ZM1.78411 1.66961H14.6557L8.21734 8.07204L1.78411 1.66961Z" fill="#6D6C6C"/>
</svg>
