<svg width="21" height="21" viewBox="0 0 21 21" fill="none" xmlns="http://www.w3.org/2000/svg">
<path d="M4.19118 15.4234V12.0884L8.19918 14.3894C8.80535 14.7375 9.49216 14.9207 10.1912 14.9207C10.8902 14.9207 11.577 14.7375 12.1832 14.3894L16.1912 12.0894V15.4234C16.1913 15.4891 16.1785 15.5542 16.1534 15.615C16.1284 15.6757 16.0916 15.7309 16.0452 15.7774L16.0432 15.7784L16.0412 15.7814L16.0342 15.7874L16.0112 15.8094L15.9312 15.8834C15.8612 15.9444 15.7612 16.0304 15.6302 16.1314C15.271 16.4072 14.8893 16.6524 14.4892 16.8644C13.1657 17.5665 11.6893 17.9306 10.1912 17.9244C8.69306 17.9306 7.21663 17.5665 5.89318 16.8644C5.49337 16.6524 5.11203 16.4072 4.75318 16.1314C4.62122 16.0297 4.49377 15.9223 4.37118 15.8094L4.34818 15.7874C4.29917 15.7402 4.26005 15.6837 4.2331 15.6212C4.20614 15.5587 4.19189 15.4915 4.19118 15.4234Z" fill="#6D6C6C"/>
<path d="M18.9402 9.35747L11.6852 13.5225C11.2305 13.7835 10.7154 13.9209 10.1912 13.9209C9.66691 13.9209 9.1518 13.7835 8.69718 13.5225L2.19118 9.78747V14.4235C2.19118 14.5561 2.1385 14.6833 2.04473 14.777C1.95096 14.8708 1.82379 14.9235 1.69118 14.9235C1.55857 14.9235 1.43139 14.8708 1.33762 14.777C1.24386 14.6833 1.19118 14.5561 1.19118 14.4235V8.92347C1.19113 8.83332 1.21545 8.74483 1.26157 8.66738C1.30769 8.58992 1.3739 8.52638 1.45318 8.48347L8.69718 4.32447C9.15171 4.06309 9.66685 3.92554 10.1912 3.92554C10.7155 3.92554 11.2306 4.06309 11.6852 4.32447L18.9402 8.49047C19.0164 8.53428 19.0798 8.59743 19.1238 8.67354C19.1678 8.74965 19.191 8.83603 19.191 8.92397C19.191 9.0119 19.1678 9.09828 19.1238 9.17439C19.0798 9.2505 19.0164 9.31365 18.9402 9.35747Z" fill="#6D6C6C"/>
</svg>
